<?xml version="1.0" encoding="utf-8" standalone="no"?>
<!DOCTYPE svg PUBLIC "-//W3C//DTD SVG 1.1//EN"
  "http://www.w3.org/Graphics/SVG/1.1/DTD/svg11.dtd">
<svg xmlns:xlink="http://www.w3.org/1999/xlink" width="180pt" height="50.4pt" viewBox="0 0 180 50.4" xmlns="http://www.w3.org/2000/svg" version="1.1">
 <metadata>
  <rdf:RDF xmlns:dc="http://purl.org/dc/elements/1.1/" xmlns:cc="http://creativecommons.org/ns#" xmlns:rdf="http://www.w3.org/1999/02/22-rdf-syntax-ns#">
   <cc:Work>
    <dc:type rdf:resource="http://purl.org/dc/dcmitype/StillImage"/>
    <dc:date>2023-09-28T15:53:11.703942</dc:date>
    <dc:format>image/svg+xml</dc:format>
    <dc:creator>
     <cc:Agent>
      <dc:title>Matplotlib v3.7.2, https://matplotlib.org/</dc:title>
     </cc:Agent>
    </dc:creator>
   </cc:Work>
  </rdf:RDF>
 </metadata>
 <defs>
  <style type="text/css">*{stroke-linejoin: round; stroke-linecap: butt}</style>
 </defs>
 <g id="figure_1">
  <g id="patch_1">
   <path d="M 0 50.4 
L 180 50.4 
L 180 0 
L 0 0 
L 0 50.4 
z
" style="fill: none"/>
  </g>
  <g id="axes_1">
   <g id="patch_2">
    <path d="M 22.5 44.856 
L 162 44.856 
L 162 6.048 
L 22.5 6.048 
L 22.5 44.856 
z
" style="fill: none"/>
   </g>
   <g id="patch_3">
    <path d="M 28.840909 44.856 
L 30.109091 44.856 
L 30.109091 44.683855 
L 28.840909 44.683855 
z
" clip-path="url(#p0b89f07449)" style="fill: #808080; opacity: 0.5"/>
   </g>
   <g id="patch_4">
    <path d="M 30.109091 44.856 
L 31.377273 44.856 
L 31.377273 44.02319 
L 30.109091 44.02319 
z
" clip-path="url(#p0b89f07449)" style="fill: #808080; opacity: 0.5"/>
   </g>
   <g id="patch_5">
    <path d="M 31.377273 44.856 
L 32.645455 44.856 
L 32.645455 42.529716 
L 31.377273 42.529716 
z
" clip-path="url(#p0b89f07449)" style="fill: #808080; opacity: 0.5"/>
   </g>
   <g id="patch_6">
    <path d="M 32.645455 44.856 
L 33.913636 44.856 
L 33.913636 40.501196 
L 32.645455 40.501196 
z
" clip-path="url(#p0b89f07449)" style="fill: #808080; opacity: 0.5"/>
   </g>
   <g id="patch_7">
    <path d="M 33.913636 44.856 
L 35.181818 44.856 
L 35.181818 37.630562 
L 33.913636 37.630562 
z
" clip-path="url(#p0b89f07449)" style="fill: #808080; opacity: 0.5"/>
   </g>
   <g id="patch_8">
    <path d="M 35.181818 44.856 
L 36.45 44.856 
L 36.45 34.755275 
L 35.181818 34.755275 
z
" clip-path="url(#p0b89f07449)" style="fill: #808080; opacity: 0.5"/>
   </g>
   <g id="patch_9">
    <path d="M 36.45 44.856 
L 37.718182 44.856 
L 37.718182 30.97739 
L 36.45 30.97739 
z
" clip-path="url(#p0b89f07449)" style="fill: #808080; opacity: 0.5"/>
   </g>
   <g id="patch_10">
    <path d="M 37.718182 44.856 
L 38.986364 44.856 
L 38.986364 27.455396 
L 37.718182 27.455396 
z
" clip-path="url(#p0b89f07449)" style="fill: #808080; opacity: 0.5"/>
   </g>
   <g id="patch_11">
    <path d="M 38.986364 44.856 
L 40.254545 44.856 
L 40.254545 24.589414 
L 38.986364 24.589414 
z
" clip-path="url(#p0b89f07449)" style="fill: #808080; opacity: 0.5"/>
   </g>
   <g id="patch_12">
    <path d="M 40.254545 44.856 
L 41.522727 44.856 
L 41.522727 21.039505 
L 40.254545 21.039505 
z
" clip-path="url(#p0b89f07449)" style="fill: #808080; opacity: 0.5"/>
   </g>
   <g id="patch_13">
    <path d="M 41.522727 44.856 
L 42.790909 44.856 
L 42.790909 17.568689 
L 41.522727 17.568689 
z
" clip-path="url(#p0b89f07449)" style="fill: #808080; opacity: 0.5"/>
   </g>
   <g id="patch_14">
    <path d="M 42.790909 44.856 
L 44.059091 44.856 
L 44.059091 15.163311 
L 42.790909 15.163311 
z
" clip-path="url(#p0b89f07449)" style="fill: #808080; opacity: 0.5"/>
   </g>
   <g id="patch_15">
    <path d="M 44.059091 44.856 
L 45.327273 44.856 
L 45.327273 12.771891 
L 44.059091 12.771891 
z
" clip-path="url(#p0b89f07449)" style="fill: #808080; opacity: 0.5"/>
   </g>
   <g id="patch_16">
    <path d="M 45.327273 44.856 
L 46.595455 44.856 
L 46.595455 10.561921 
L 45.327273 10.561921 
z
" clip-path="url(#p0b89f07449)" style="fill: #808080; opacity: 0.5"/>
   </g>
   <g id="patch_17">
    <path d="M 46.595455 44.856 
L 47.863636 44.856 
L 47.863636 9.58023 
L 46.595455 9.58023 
z
" clip-path="url(#p0b89f07449)" style="fill: #808080; opacity: 0.5"/>
   </g>
   <g id="patch_18">
    <path d="M 47.863636 44.856 
L 49.131818 44.856 
L 49.131818 8.40313 
L 47.863636 8.40313 
z
" clip-path="url(#p0b89f07449)" style="fill: #808080; opacity: 0.5"/>
   </g>
   <g id="patch_19">
    <path d="M 49.131818 44.856 
L 50.4 44.856 
L 50.4 7.905305 
L 49.131818 7.905305 
z
" clip-path="url(#p0b89f07449)" style="fill: #808080; opacity: 0.5"/>
   </g>
   <g id="patch_20">
    <path d="M 50.4 44.856 
L 51.668182 44.856 
L 51.668182 7.896 
L 50.4 7.896 
z
" clip-path="url(#p0b89f07449)" style="fill: #808080; opacity: 0.5"/>
   </g>
   <g id="patch_21">
    <path d="M 51.668182 44.856 
L 52.936364 44.856 
L 52.936364 7.91461 
L 51.668182 7.91461 
z
" clip-path="url(#p0b89f07449)" style="fill: #808080; opacity: 0.5"/>
   </g>
   <g id="patch_22">
    <path d="M 52.936364 44.856 
L 54.204545 44.856 
L 54.204545 9.133583 
L 52.936364 9.133583 
z
" clip-path="url(#p0b89f07449)" style="fill: #808080; opacity: 0.5"/>
   </g>
   <g id="patch_23">
    <path d="M 54.204545 44.856 
L 55.472727 44.856 
L 55.472727 9.510441 
L 54.204545 9.510441 
z
" clip-path="url(#p0b89f07449)" style="fill: #808080; opacity: 0.5"/>
   </g>
   <g id="patch_24">
    <path d="M 55.472727 44.856 
L 56.740909 44.856 
L 56.740909 11.106272 
L 55.472727 11.106272 
z
" clip-path="url(#p0b89f07449)" style="fill: #808080; opacity: 0.5"/>
   </g>
   <g id="patch_25">
    <path d="M 56.740909 44.856 
L 58.009091 44.856 
L 58.009091 11.217934 
L 56.740909 11.217934 
z
" clip-path="url(#p0b89f07449)" style="fill: #808080; opacity: 0.5"/>
   </g>
   <g id="patch_26">
    <path d="M 58.009091 44.856 
L 59.277273 44.856 
L 59.277273 12.939384 
L 58.009091 12.939384 
z
" clip-path="url(#p0b89f07449)" style="fill: #808080; opacity: 0.5"/>
   </g>
   <g id="patch_27">
    <path d="M 59.277273 44.856 
L 60.545455 44.856 
L 60.545455 14.800411 
L 59.277273 14.800411 
z
" clip-path="url(#p0b89f07449)" style="fill: #808080; opacity: 0.5"/>
   </g>
   <g id="patch_28">
    <path d="M 60.545455 44.856 
L 61.813636 44.856 
L 61.813636 16.079867 
L 60.545455 16.079867 
z
" clip-path="url(#p0b89f07449)" style="fill: #808080; opacity: 0.5"/>
   </g>
   <g id="patch_29">
    <path d="M 61.813636 44.856 
L 63.081818 44.856 
L 63.081818 17.852495 
L 61.813636 17.852495 
z
" clip-path="url(#p0b89f07449)" style="fill: #808080; opacity: 0.5"/>
   </g>
   <g id="patch_30">
    <path d="M 63.081818 44.856 
L 64.35 44.856 
L 64.35 19.834489 
L 63.081818 19.834489 
z
" clip-path="url(#p0b89f07449)" style="fill: #808080; opacity: 0.5"/>
   </g>
   <g id="patch_31">
    <path d="M 64.35 44.856 
L 65.618182 44.856 
L 65.618182 21.155819 
L 64.35 21.155819 
z
" clip-path="url(#p0b89f07449)" style="fill: #808080; opacity: 0.5"/>
   </g>
   <g id="patch_32">
    <path d="M 65.618182 44.856 
L 66.886364 44.856 
L 66.886364 22.974973 
L 65.618182 22.974973 
z
" clip-path="url(#p0b89f07449)" style="fill: #808080; opacity: 0.5"/>
   </g>
   <g id="patch_33">
    <path d="M 66.886364 44.856 
L 68.154545 44.856 
L 68.154545 24.798779 
L 66.886364 24.798779 
z
" clip-path="url(#p0b89f07449)" style="fill: #808080; opacity: 0.5"/>
   </g>
   <g id="patch_34">
    <path d="M 68.154545 44.856 
L 69.422727 44.856 
L 69.422727 26.636544 
L 68.154545 26.636544 
z
" clip-path="url(#p0b89f07449)" style="fill: #808080; opacity: 0.5"/>
   </g>
   <g id="patch_35">
    <path d="M 69.422727 44.856 
L 70.690909 44.856 
L 70.690909 27.878779 
L 69.422727 27.878779 
z
" clip-path="url(#p0b89f07449)" style="fill: #808080; opacity: 0.5"/>
   </g>
   <g id="patch_36">
    <path d="M 70.690909 44.856 
L 71.959091 44.856 
L 71.959091 29.953825 
L 70.690909 29.953825 
z
" clip-path="url(#p0b89f07449)" style="fill: #808080; opacity: 0.5"/>
   </g>
   <g id="patch_37">
    <path d="M 71.959091 44.856 
L 73.227273 44.856 
L 73.227273 30.609837 
L 71.959091 30.609837 
z
" clip-path="url(#p0b89f07449)" style="fill: #808080; opacity: 0.5"/>
   </g>
   <g id="patch_38">
    <path d="M 73.227273 44.856 
L 74.495455 44.856 
L 74.495455 32.489474 
L 73.227273 32.489474 
z
" clip-path="url(#p0b89f07449)" style="fill: #808080; opacity: 0.5"/>
   </g>
   <g id="patch_39">
    <path d="M 74.495455 44.856 
L 75.763636 44.856 
L 75.763636 33.429293 
L 74.495455 33.429293 
z
" clip-path="url(#p0b89f07449)" style="fill: #808080; opacity: 0.5"/>
   </g>
   <g id="patch_40">
    <path d="M 75.763636 44.856 
L 77.031818 44.856 
L 77.031818 34.062042 
L 75.763636 34.062042 
z
" clip-path="url(#p0b89f07449)" style="fill: #808080; opacity: 0.5"/>
   </g>
   <g id="patch_41">
    <path d="M 77.031818 44.856 
L 78.3 44.856 
L 78.3 35.401982 
L 77.031818 35.401982 
z
" clip-path="url(#p0b89f07449)" style="fill: #808080; opacity: 0.5"/>
   </g>
   <g id="patch_42">
    <path d="M 78.3 44.856 
L 79.568182 44.856 
L 79.568182 36.458115 
L 78.3 36.458115 
z
" clip-path="url(#p0b89f07449)" style="fill: #808080; opacity: 0.5"/>
   </g>
   <g id="patch_43">
    <path d="M 79.568182 44.856 
L 80.836364 44.856 
L 80.836364 37.430502 
L 79.568182 37.430502 
z
" clip-path="url(#p0b89f07449)" style="fill: #808080; opacity: 0.5"/>
   </g>
   <g id="patch_44">
    <path d="M 80.836364 44.856 
L 82.104545 44.856 
L 82.104545 38.295879 
L 80.836364 38.295879 
z
" clip-path="url(#p0b89f07449)" style="fill: #808080; opacity: 0.5"/>
   </g>
   <g id="patch_45">
    <path d="M 82.104545 44.856 
L 83.372727 44.856 
L 83.372727 38.826272 
L 82.104545 38.826272 
z
" clip-path="url(#p0b89f07449)" style="fill: #808080; opacity: 0.5"/>
   </g>
   <g id="patch_46">
    <path d="M 83.372727 44.856 
L 84.640909 44.856 
L 84.640909 39.714912 
L 83.372727 39.714912 
z
" clip-path="url(#p0b89f07449)" style="fill: #808080; opacity: 0.5"/>
   </g>
   <g id="patch_47">
    <path d="M 84.640909 44.856 
L 85.909091 44.856 
L 85.909091 40.287178 
L 84.640909 40.287178 
z
" clip-path="url(#p0b89f07449)" style="fill: #808080; opacity: 0.5"/>
   </g>
   <g id="patch_48">
    <path d="M 85.909091 44.856 
L 87.177273 44.856 
L 87.177273 40.90597 
L 85.909091 40.90597 
z
" clip-path="url(#p0b89f07449)" style="fill: #808080; opacity: 0.5"/>
   </g>
   <g id="patch_49">
    <path d="M 87.177273 44.856 
L 88.445455 44.856 
L 88.445455 41.110683 
L 87.177273 41.110683 
z
" clip-path="url(#p0b89f07449)" style="fill: #808080; opacity: 0.5"/>
   </g>
   <g id="patch_50">
    <path d="M 88.445455 44.856 
L 89.713636 44.856 
L 89.713636 41.962103 
L 88.445455 41.962103 
z
" clip-path="url(#p0b89f07449)" style="fill: #808080; opacity: 0.5"/>
   </g>
   <g id="patch_51">
    <path d="M 89.713636 44.856 
L 90.981818 44.856 
L 90.981818 42.26452 
L 89.713636 42.26452 
z
" clip-path="url(#p0b89f07449)" style="fill: #808080; opacity: 0.5"/>
   </g>
   <g id="patch_52">
    <path d="M 90.981818 44.856 
L 92.25 44.856 
L 92.25 42.227299 
L 90.981818 42.227299 
z
" clip-path="url(#p0b89f07449)" style="fill: #808080; opacity: 0.5"/>
   </g>
   <g id="patch_53">
    <path d="M 92.25 44.856 
L 93.518182 44.856 
L 93.518182 42.860048 
L 92.25 42.860048 
z
" clip-path="url(#p0b89f07449)" style="fill: #808080; opacity: 0.5"/>
   </g>
   <g id="patch_54">
    <path d="M 93.518182 44.856 
L 94.786364 44.856 
L 94.786364 43.157813 
L 93.518182 43.157813 
z
" clip-path="url(#p0b89f07449)" style="fill: #808080; opacity: 0.5"/>
   </g>
   <g id="patch_55">
    <path d="M 94.786364 44.856 
L 96.054545 44.856 
L 96.054545 43.353221 
L 94.786364 43.353221 
z
" clip-path="url(#p0b89f07449)" style="fill: #808080; opacity: 0.5"/>
   </g>
   <g id="patch_56">
    <path d="M 96.054545 44.856 
L 97.322727 44.856 
L 97.322727 43.571891 
L 96.054545 43.571891 
z
" clip-path="url(#p0b89f07449)" style="fill: #808080; opacity: 0.5"/>
   </g>
   <g id="patch_57">
    <path d="M 97.322727 44.856 
L 98.590909 44.856 
L 98.590909 43.664943 
L 97.322727 43.664943 
z
" clip-path="url(#p0b89f07449)" style="fill: #808080; opacity: 0.5"/>
   </g>
   <g id="patch_58">
    <path d="M 98.590909 44.856 
L 99.859091 44.856 
L 99.859091 43.757994 
L 98.590909 43.757994 
z
" clip-path="url(#p0b89f07449)" style="fill: #808080; opacity: 0.5"/>
   </g>
   <g id="patch_59">
    <path d="M 99.859091 44.856 
L 101.127273 44.856 
L 101.127273 43.883613 
L 99.859091 43.883613 
z
" clip-path="url(#p0b89f07449)" style="fill: #808080; opacity: 0.5"/>
   </g>
   <g id="patch_60">
    <path d="M 101.127273 44.856 
L 102.395455 44.856 
L 102.395455 44.227903 
L 101.127273 44.227903 
z
" clip-path="url(#p0b89f07449)" style="fill: #808080; opacity: 0.5"/>
   </g>
   <g id="patch_61">
    <path d="M 102.395455 44.856 
L 103.663636 44.856 
L 103.663636 44.172073 
L 102.395455 44.172073 
z
" clip-path="url(#p0b89f07449)" style="fill: #808080; opacity: 0.5"/>
   </g>
   <g id="patch_62">
    <path d="M 103.663636 44.856 
L 104.931818 44.856 
L 104.931818 44.246514 
L 103.663636 44.246514 
z
" clip-path="url(#p0b89f07449)" style="fill: #808080; opacity: 0.5"/>
   </g>
   <g id="patch_63">
    <path d="M 104.931818 44.856 
L 106.2 44.856 
L 106.2 44.288387 
L 104.931818 44.288387 
z
" clip-path="url(#p0b89f07449)" style="fill: #808080; opacity: 0.5"/>
   </g>
   <g id="patch_64">
    <path d="M 106.2 44.856 
L 107.468182 44.856 
L 107.468182 44.469837 
L 106.2 44.469837 
z
" clip-path="url(#p0b89f07449)" style="fill: #808080; opacity: 0.5"/>
   </g>
   <g id="patch_65">
    <path d="M 107.468182 44.856 
L 108.736364 44.856 
L 108.736364 44.544278 
L 107.468182 44.544278 
z
" clip-path="url(#p0b89f07449)" style="fill: #808080; opacity: 0.5"/>
   </g>
   <g id="patch_66">
    <path d="M 108.736364 44.856 
L 110.004545 44.856 
L 110.004545 44.548931 
L 108.736364 44.548931 
z
" clip-path="url(#p0b89f07449)" style="fill: #808080; opacity: 0.5"/>
   </g>
   <g id="patch_67">
    <path d="M 110.004545 44.856 
L 111.272727 44.856 
L 111.272727 44.544278 
L 110.004545 44.544278 
z
" clip-path="url(#p0b89f07449)" style="fill: #808080; opacity: 0.5"/>
   </g>
   <g id="patch_68">
    <path d="M 111.272727 44.856 
L 112.540909 44.856 
L 112.540909 44.637329 
L 111.272727 44.637329 
z
" clip-path="url(#p0b89f07449)" style="fill: #808080; opacity: 0.5"/>
   </g>
   <g id="patch_69">
    <path d="M 112.540909 44.856 
L 113.809091 44.856 
L 113.809091 44.651287 
L 112.540909 44.651287 
z
" clip-path="url(#p0b89f07449)" style="fill: #808080; opacity: 0.5"/>
   </g>
   <g id="patch_70">
    <path d="M 113.809091 44.856 
L 115.077273 44.856 
L 115.077273 44.725728 
L 113.809091 44.725728 
z
" clip-path="url(#p0b89f07449)" style="fill: #808080; opacity: 0.5"/>
   </g>
   <g id="patch_71">
    <path d="M 115.077273 44.856 
L 116.345455 44.856 
L 116.345455 44.735033 
L 115.077273 44.735033 
z
" clip-path="url(#p0b89f07449)" style="fill: #808080; opacity: 0.5"/>
   </g>
   <g id="patch_72">
    <path d="M 116.345455 44.856 
L 117.613636 44.856 
L 117.613636 44.730381 
L 116.345455 44.730381 
z
" clip-path="url(#p0b89f07449)" style="fill: #808080; opacity: 0.5"/>
   </g>
   <g id="patch_73">
    <path d="M 117.613636 44.856 
L 118.881818 44.856 
L 118.881818 44.753644 
L 117.613636 44.753644 
z
" clip-path="url(#p0b89f07449)" style="fill: #808080; opacity: 0.5"/>
   </g>
   <g id="patch_74">
    <path d="M 118.881818 44.856 
L 120.15 44.856 
L 120.15 44.776906 
L 118.881818 44.776906 
z
" clip-path="url(#p0b89f07449)" style="fill: #808080; opacity: 0.5"/>
   </g>
   <g id="patch_75">
    <path d="M 120.15 44.856 
L 121.418182 44.856 
L 121.418182 44.809474 
L 120.15 44.809474 
z
" clip-path="url(#p0b89f07449)" style="fill: #808080; opacity: 0.5"/>
   </g>
   <g id="patch_76">
    <path d="M 121.418182 44.856 
L 122.686364 44.856 
L 122.686364 44.809474 
L 121.418182 44.809474 
z
" clip-path="url(#p0b89f07449)" style="fill: #808080; opacity: 0.5"/>
   </g>
   <g id="patch_77">
    <path d="M 122.686364 44.856 
L 123.954545 44.856 
L 123.954545 44.781559 
L 122.686364 44.781559 
z
" clip-path="url(#p0b89f07449)" style="fill: #808080; opacity: 0.5"/>
   </g>
   <g id="patch_78">
    <path d="M 123.954545 44.856 
L 125.222727 44.856 
L 125.222727 44.828085 
L 123.954545 44.828085 
z
" clip-path="url(#p0b89f07449)" style="fill: #808080; opacity: 0.5"/>
   </g>
   <g id="patch_79">
    <path d="M 125.222727 44.856 
L 126.490909 44.856 
L 126.490909 44.832737 
L 125.222727 44.832737 
z
" clip-path="url(#p0b89f07449)" style="fill: #808080; opacity: 0.5"/>
   </g>
   <g id="patch_80">
    <path d="M 126.490909 44.856 
L 127.759091 44.856 
L 127.759091 44.823432 
L 126.490909 44.823432 
z
" clip-path="url(#p0b89f07449)" style="fill: #808080; opacity: 0.5"/>
   </g>
   <g id="patch_81">
    <path d="M 127.759091 44.856 
L 129.027273 44.856 
L 129.027273 44.814127 
L 127.759091 44.814127 
z
" clip-path="url(#p0b89f07449)" style="fill: #808080; opacity: 0.5"/>
   </g>
   <g id="patch_82">
    <path d="M 129.027273 44.856 
L 130.295455 44.856 
L 130.295455 44.818779 
L 129.027273 44.818779 
z
" clip-path="url(#p0b89f07449)" style="fill: #808080; opacity: 0.5"/>
   </g>
   <g id="patch_83">
    <path d="M 130.295455 44.856 
L 131.563636 44.856 
L 131.563636 44.842042 
L 130.295455 44.842042 
z
" clip-path="url(#p0b89f07449)" style="fill: #808080; opacity: 0.5"/>
   </g>
   <g id="patch_84">
    <path d="M 131.563636 44.856 
L 132.831818 44.856 
L 132.831818 44.814127 
L 131.563636 44.814127 
z
" clip-path="url(#p0b89f07449)" style="fill: #808080; opacity: 0.5"/>
   </g>
   <g id="patch_85">
    <path d="M 132.831818 44.856 
L 134.1 44.856 
L 134.1 44.842042 
L 132.831818 44.842042 
z
" clip-path="url(#p0b89f07449)" style="fill: #808080; opacity: 0.5"/>
   </g>
   <g id="patch_86">
    <path d="M 134.1 44.856 
L 135.368182 44.856 
L 135.368182 44.83739 
L 134.1 44.83739 
z
" clip-path="url(#p0b89f07449)" style="fill: #808080; opacity: 0.5"/>
   </g>
   <g id="patch_87">
    <path d="M 135.368182 44.856 
L 136.636364 44.856 
L 136.636364 44.842042 
L 135.368182 44.842042 
z
" clip-path="url(#p0b89f07449)" style="fill: #808080; opacity: 0.5"/>
   </g>
   <g id="patch_88">
    <path d="M 136.636364 44.856 
L 137.904545 44.856 
L 137.904545 44.851347 
L 136.636364 44.851347 
z
" clip-path="url(#p0b89f07449)" style="fill: #808080; opacity: 0.5"/>
   </g>
   <g id="patch_89">
    <path d="M 137.904545 44.856 
L 139.172727 44.856 
L 139.172727 44.851347 
L 137.904545 44.851347 
z
" clip-path="url(#p0b89f07449)" style="fill: #808080; opacity: 0.5"/>
   </g>
   <g id="patch_90">
    <path d="M 139.172727 44.856 
L 140.440909 44.856 
L 140.440909 44.851347 
L 139.172727 44.851347 
z
" clip-path="url(#p0b89f07449)" style="fill: #808080; opacity: 0.5"/>
   </g>
   <g id="patch_91">
    <path d="M 140.440909 44.856 
L 141.709091 44.856 
L 141.709091 44.851347 
L 140.440909 44.851347 
z
" clip-path="url(#p0b89f07449)" style="fill: #808080; opacity: 0.5"/>
   </g>
   <g id="patch_92">
    <path d="M 141.709091 44.856 
L 142.977273 44.856 
L 142.977273 44.842042 
L 141.709091 44.842042 
z
" clip-path="url(#p0b89f07449)" style="fill: #808080; opacity: 0.5"/>
   </g>
   <g id="patch_93">
    <path d="M 142.977273 44.856 
L 144.245455 44.856 
L 144.245455 44.846695 
L 142.977273 44.846695 
z
" clip-path="url(#p0b89f07449)" style="fill: #808080; opacity: 0.5"/>
   </g>
   <g id="patch_94">
    <path d="M 144.245455 44.856 
L 145.513636 44.856 
L 145.513636 44.856 
L 144.245455 44.856 
z
" clip-path="url(#p0b89f07449)" style="fill: #808080; opacity: 0.5"/>
   </g>
   <g id="patch_95">
    <path d="M 145.513636 44.856 
L 146.781818 44.856 
L 146.781818 44.856 
L 145.513636 44.856 
z
" clip-path="url(#p0b89f07449)" style="fill: #808080; opacity: 0.5"/>
   </g>
   <g id="patch_96">
    <path d="M 146.781818 44.856 
L 148.05 44.856 
L 148.05 44.856 
L 146.781818 44.856 
z
" clip-path="url(#p0b89f07449)" style="fill: #808080; opacity: 0.5"/>
   </g>
   <g id="patch_97">
    <path d="M 148.05 44.856 
L 149.318182 44.856 
L 149.318182 44.856 
L 148.05 44.856 
z
" clip-path="url(#p0b89f07449)" style="fill: #808080; opacity: 0.5"/>
   </g>
   <g id="patch_98">
    <path d="M 149.318182 44.856 
L 150.586364 44.856 
L 150.586364 44.856 
L 149.318182 44.856 
z
" clip-path="url(#p0b89f07449)" style="fill: #808080; opacity: 0.5"/>
   </g>
   <g id="patch_99">
    <path d="M 150.586364 44.856 
L 151.854545 44.856 
L 151.854545 44.856 
L 150.586364 44.856 
z
" clip-path="url(#p0b89f07449)" style="fill: #808080; opacity: 0.5"/>
   </g>
   <g id="patch_100">
    <path d="M 151.854545 44.856 
L 153.122727 44.856 
L 153.122727 44.856 
L 151.854545 44.856 
z
" clip-path="url(#p0b89f07449)" style="fill: #808080; opacity: 0.5"/>
   </g>
   <g id="patch_101">
    <path d="M 153.122727 44.856 
L 154.390909 44.856 
L 154.390909 44.851347 
L 153.122727 44.851347 
z
" clip-path="url(#p0b89f07449)" style="fill: #808080; opacity: 0.5"/>
   </g>
   <g id="patch_102">
    <path d="M 154.390909 44.856 
L 155.659091 44.856 
L 155.659091 44.851347 
L 154.390909 44.851347 
z
" clip-path="url(#p0b89f07449)" style="fill: #808080; opacity: 0.5"/>
   </g>
   <g id="matplotlib.axis_1">
    <g id="xtick_1">
     <g id="line2d_1">
      <defs>
       <path id="m98ab4586be" d="M 0 0 
L 0 3.5 
" style="stroke: #000000; stroke-width: 0.8"/>
      </defs>
      <g>
       <use xlink:href="#m98ab4586be" x="28.086011" y="44.856" style="stroke: #000000; stroke-width: 0.8"/>
      </g>
     </g>
     <g id="text_1">
      <!-- 0 -->
      <g transform="translate(24.904761 59.454437) scale(0.1 -0.1)">
       <defs>
        <path id="DejaVuSans-30" d="M 2034 4250 
Q 1547 4250 1301 3770 
Q 1056 3291 1056 2328 
Q 1056 1369 1301 889 
Q 1547 409 2034 409 
Q 2525 409 2770 889 
Q 3016 1369 3016 2328 
Q 3016 3291 2770 3770 
Q 2525 4250 2034 4250 
z
M 2034 4750 
Q 2819 4750 3233 4129 
Q 3647 3509 3647 2328 
Q 3647 1150 3233 529 
Q 2819 -91 2034 -91 
Q 1250 -91 836 529 
Q 422 1150 422 2328 
Q 422 3509 836 4129 
Q 1250 4750 2034 4750 
z
" transform="scale(0.015625)"/>
       </defs>
       <use xlink:href="#DejaVuSans-30"/>
      </g>
     </g>
    </g>
    <g id="xtick_2">
     <g id="line2d_2">
      <g>
       <use xlink:href="#m98ab4586be" x="80.524789" y="44.856" style="stroke: #000000; stroke-width: 0.8"/>
      </g>
     </g>
     <g id="text_2">
      <!-- 10 -->
      <g transform="translate(74.162289 59.454437) scale(0.1 -0.1)">
       <defs>
        <path id="DejaVuSans-31" d="M 794 531 
L 1825 531 
L 1825 4091 
L 703 3866 
L 703 4441 
L 1819 4666 
L 2450 4666 
L 2450 531 
L 3481 531 
L 3481 0 
L 794 0 
L 794 531 
z
" transform="scale(0.015625)"/>
       </defs>
       <use xlink:href="#DejaVuSans-31"/>
       <use xlink:href="#DejaVuSans-30" x="63.623047"/>
      </g>
     </g>
    </g>
    <g id="xtick_3">
     <g id="line2d_3">
      <g>
       <use xlink:href="#m98ab4586be" x="132.963566" y="44.856" style="stroke: #000000; stroke-width: 0.8"/>
      </g>
     </g>
     <g id="text_3">
      <!-- 20 -->
      <g transform="translate(126.601066 59.454437) scale(0.1 -0.1)">
       <defs>
        <path id="DejaVuSans-32" d="M 1228 531 
L 3431 531 
L 3431 0 
L 469 0 
L 469 531 
Q 828 903 1448 1529 
Q 2069 2156 2228 2338 
Q 2531 2678 2651 2914 
Q 2772 3150 2772 3378 
Q 2772 3750 2511 3984 
Q 2250 4219 1831 4219 
Q 1534 4219 1204 4116 
Q 875 4013 500 3803 
L 500 4441 
Q 881 4594 1212 4672 
Q 1544 4750 1819 4750 
Q 2544 4750 2975 4387 
Q 3406 4025 3406 3419 
Q 3406 3131 3298 2873 
Q 3191 2616 2906 2266 
Q 2828 2175 2409 1742 
Q 1991 1309 1228 531 
z
" transform="scale(0.015625)"/>
       </defs>
       <use xlink:href="#DejaVuSans-32"/>
       <use xlink:href="#DejaVuSans-30" x="63.623047"/>
      </g>
     </g>
    </g>
    <g id="text_4">
     <!-- delay period $\tau$ -->
     <g transform="translate(57.27 73.934125) scale(0.12 -0.12)">
      <defs>
       <path id="TimesNewRomanPSMT-64" d="M 2222 322 
Q 2013 103 1813 7 
Q 1613 -88 1381 -88 
Q 913 -88 563 304 
Q 213 697 213 1313 
Q 213 1928 600 2439 
Q 988 2950 1597 2950 
Q 1975 2950 2222 2709 
L 2222 3238 
Q 2222 3728 2198 3840 
Q 2175 3953 2125 3993 
Q 2075 4034 2000 4034 
Q 1919 4034 1784 3984 
L 1744 4094 
L 2597 4444 
L 2738 4444 
L 2738 1134 
Q 2738 631 2761 520 
Q 2784 409 2836 365 
Q 2888 322 2956 322 
Q 3041 322 3181 375 
L 3216 266 
L 2366 -88 
L 2222 -88 
L 2222 322 
z
M 2222 541 
L 2222 2016 
Q 2203 2228 2109 2403 
Q 2016 2578 1861 2667 
Q 1706 2756 1559 2756 
Q 1284 2756 1069 2509 
Q 784 2184 784 1559 
Q 784 928 1059 592 
Q 1334 256 1672 256 
Q 1956 256 2222 541 
z
" transform="scale(0.015625)"/>
       <path id="TimesNewRomanPSMT-65" d="M 681 1784 
Q 678 1147 991 784 
Q 1303 422 1725 422 
Q 2006 422 2214 576 
Q 2422 731 2563 1106 
L 2659 1044 
Q 2594 616 2278 264 
Q 1963 -88 1488 -88 
Q 972 -88 605 314 
Q 238 716 238 1394 
Q 238 2128 614 2539 
Q 991 2950 1559 2950 
Q 2041 2950 2350 2633 
Q 2659 2316 2659 1784 
L 681 1784 
z
M 681 1966 
L 2006 1966 
Q 1991 2241 1941 2353 
Q 1863 2528 1708 2628 
Q 1553 2728 1384 2728 
Q 1125 2728 920 2526 
Q 716 2325 681 1966 
z
" transform="scale(0.015625)"/>
       <path id="TimesNewRomanPSMT-6c" d="M 1184 4444 
L 1184 647 
Q 1184 378 1223 290 
Q 1263 203 1344 158 
Q 1425 113 1647 113 
L 1647 0 
L 244 0 
L 244 113 
Q 441 113 512 153 
Q 584 194 625 287 
Q 666 381 666 647 
L 666 3247 
Q 666 3731 644 3842 
Q 622 3953 573 3993 
Q 525 4034 450 4034 
Q 369 4034 244 3984 
L 191 4094 
L 1044 4444 
L 1184 4444 
z
" transform="scale(0.015625)"/>
       <path id="TimesNewRomanPSMT-61" d="M 1822 413 
Q 1381 72 1269 19 
Q 1100 -59 909 -59 
Q 613 -59 420 144 
Q 228 347 228 678 
Q 228 888 322 1041 
Q 450 1253 767 1440 
Q 1084 1628 1822 1897 
L 1822 2009 
Q 1822 2438 1686 2597 
Q 1550 2756 1291 2756 
Q 1094 2756 978 2650 
Q 859 2544 859 2406 
L 866 2225 
Q 866 2081 792 2003 
Q 719 1925 600 1925 
Q 484 1925 411 2006 
Q 338 2088 338 2228 
Q 338 2497 613 2722 
Q 888 2947 1384 2947 
Q 1766 2947 2009 2819 
Q 2194 2722 2281 2516 
Q 2338 2381 2338 1966 
L 2338 994 
Q 2338 584 2353 492 
Q 2369 400 2405 369 
Q 2441 338 2488 338 
Q 2538 338 2575 359 
Q 2641 400 2828 588 
L 2828 413 
Q 2478 -56 2159 -56 
Q 2006 -56 1915 50 
Q 1825 156 1822 413 
z
M 1822 616 
L 1822 1706 
Q 1350 1519 1213 1441 
Q 966 1303 859 1153 
Q 753 1003 753 825 
Q 753 600 887 451 
Q 1022 303 1197 303 
Q 1434 303 1822 616 
z
" transform="scale(0.015625)"/>
       <path id="TimesNewRomanPSMT-79" d="M 38 2863 
L 1372 2863 
L 1372 2747 
L 1306 2747 
Q 1166 2747 1095 2686 
Q 1025 2625 1025 2534 
Q 1025 2413 1128 2197 
L 1825 753 
L 2466 2334 
Q 2519 2463 2519 2588 
Q 2519 2644 2497 2672 
Q 2472 2706 2419 2726 
Q 2366 2747 2231 2747 
L 2231 2863 
L 3163 2863 
L 3163 2747 
Q 3047 2734 2984 2696 
Q 2922 2659 2847 2556 
Q 2819 2513 2741 2316 
L 1575 -541 
Q 1406 -956 1132 -1168 
Q 859 -1381 606 -1381 
Q 422 -1381 303 -1275 
Q 184 -1169 184 -1031 
Q 184 -900 270 -820 
Q 356 -741 506 -741 
Q 609 -741 788 -809 
Q 913 -856 944 -856 
Q 1038 -856 1148 -759 
Q 1259 -663 1372 -384 
L 1575 113 
L 547 2272 
Q 500 2369 397 2513 
Q 319 2622 269 2659 
Q 197 2709 38 2747 
L 38 2863 
z
" transform="scale(0.015625)"/>
       <path id="TimesNewRomanPSMT-20" transform="scale(0.015625)"/>
       <path id="TimesNewRomanPSMT-70" d="M -6 2578 
L 875 2934 
L 994 2934 
L 994 2266 
Q 1216 2644 1439 2795 
Q 1663 2947 1909 2947 
Q 2341 2947 2628 2609 
Q 2981 2197 2981 1534 
Q 2981 794 2556 309 
Q 2206 -88 1675 -88 
Q 1444 -88 1275 -22 
Q 1150 25 994 166 
L 994 -706 
Q 994 -1000 1030 -1079 
Q 1066 -1159 1155 -1206 
Q 1244 -1253 1478 -1253 
L 1478 -1369 
L -22 -1369 
L -22 -1253 
L 56 -1253 
Q 228 -1256 350 -1188 
Q 409 -1153 442 -1076 
Q 475 -1000 475 -688 
L 475 2019 
Q 475 2297 450 2372 
Q 425 2447 370 2484 
Q 316 2522 222 2522 
Q 147 2522 31 2478 
L -6 2578 
z
M 994 2081 
L 994 1013 
Q 994 666 1022 556 
Q 1066 375 1236 237 
Q 1406 100 1666 100 
Q 1978 100 2172 344 
Q 2425 663 2425 1241 
Q 2425 1897 2138 2250 
Q 1938 2494 1663 2494 
Q 1513 2494 1366 2419 
Q 1253 2363 994 2081 
z
" transform="scale(0.015625)"/>
       <path id="TimesNewRomanPSMT-72" d="M 1038 2947 
L 1038 2303 
Q 1397 2947 1775 2947 
Q 1947 2947 2059 2842 
Q 2172 2738 2172 2600 
Q 2172 2478 2090 2393 
Q 2009 2309 1897 2309 
Q 1788 2309 1652 2417 
Q 1516 2525 1450 2525 
Q 1394 2525 1328 2463 
Q 1188 2334 1038 2041 
L 1038 669 
Q 1038 431 1097 309 
Q 1138 225 1241 169 
Q 1344 113 1538 113 
L 1538 0 
L 72 0 
L 72 113 
Q 291 113 397 181 
Q 475 231 506 341 
Q 522 394 522 644 
L 522 1753 
Q 522 2253 501 2348 
Q 481 2444 426 2487 
Q 372 2531 291 2531 
Q 194 2531 72 2484 
L 41 2597 
L 906 2947 
L 1038 2947 
z
" transform="scale(0.015625)"/>
       <path id="TimesNewRomanPSMT-69" d="M 928 4444 
Q 1059 4444 1151 4351 
Q 1244 4259 1244 4128 
Q 1244 3997 1151 3903 
Q 1059 3809 928 3809 
Q 797 3809 703 3903 
Q 609 3997 609 4128 
Q 609 4259 701 4351 
Q 794 4444 928 4444 
z
M 1188 2947 
L 1188 647 
Q 1188 378 1227 289 
Q 1266 200 1342 156 
Q 1419 113 1622 113 
L 1622 0 
L 231 0 
L 231 113 
Q 441 113 512 153 
Q 584 194 626 287 
Q 669 381 669 647 
L 669 1750 
Q 669 2216 641 2353 
Q 619 2453 572 2492 
Q 525 2531 444 2531 
Q 356 2531 231 2484 
L 188 2597 
L 1050 2947 
L 1188 2947 
z
" transform="scale(0.015625)"/>
       <path id="TimesNewRomanPSMT-6f" d="M 1600 2947 
Q 2250 2947 2644 2453 
Q 2978 2031 2978 1484 
Q 2978 1100 2793 706 
Q 2609 313 2286 112 
Q 1963 -88 1566 -88 
Q 919 -88 538 428 
Q 216 863 216 1403 
Q 216 1797 411 2186 
Q 606 2575 925 2761 
Q 1244 2947 1600 2947 
z
M 1503 2744 
Q 1338 2744 1170 2645 
Q 1003 2547 900 2300 
Q 797 2053 797 1666 
Q 797 1041 1045 587 
Q 1294 134 1700 134 
Q 2003 134 2200 384 
Q 2397 634 2397 1244 
Q 2397 2006 2069 2444 
Q 1847 2744 1503 2744 
z
" transform="scale(0.015625)"/>
       <path id="DejaVuSans-Oblique-3c4" d="M 2103 638 
Q 2188 488 2525 488 
L 2800 488 
L 2706 0 
L 2363 0 
Q 1800 0 1600 300 
Q 1403 606 1534 1269 
L 1856 2925 
L 541 2925 
L 653 3500 
L 3881 3500 
L 3769 2925 
L 2444 2925 
L 2113 1234 
Q 2025 781 2103 638 
z
" transform="scale(0.015625)"/>
      </defs>
      <use xlink:href="#TimesNewRomanPSMT-64" transform="translate(0 0.5625)"/>
      <use xlink:href="#TimesNewRomanPSMT-65" transform="translate(50 0.5625)"/>
      <use xlink:href="#TimesNewRomanPSMT-6c" transform="translate(94.384766 0.5625)"/>
      <use xlink:href="#TimesNewRomanPSMT-61" transform="translate(122.167969 0.5625)"/>
      <use xlink:href="#TimesNewRomanPSMT-79" transform="translate(166.552734 0.5625)"/>
      <use xlink:href="#TimesNewRomanPSMT-20" transform="translate(216.552734 0.5625)"/>
      <use xlink:href="#TimesNewRomanPSMT-70" transform="translate(241.552734 0.5625)"/>
      <use xlink:href="#TimesNewRomanPSMT-65" transform="translate(291.552734 0.5625)"/>
      <use xlink:href="#TimesNewRomanPSMT-72" transform="translate(335.9375 0.5625)"/>
      <use xlink:href="#TimesNewRomanPSMT-69" transform="translate(369.238281 0.5625)"/>
      <use xlink:href="#TimesNewRomanPSMT-6f" transform="translate(397.021484 0.5625)"/>
      <use xlink:href="#TimesNewRomanPSMT-64" transform="translate(447.021484 0.5625)"/>
      <use xlink:href="#TimesNewRomanPSMT-20" transform="translate(497.021484 0.5625)"/>
      <use xlink:href="#DejaVuSans-Oblique-3c4" transform="translate(522.021484 0.5625)"/>
     </g>
    </g>
   </g>
   <g id="matplotlib.axis_2">
    <g id="ytick_1">
     <g id="line2d_4">
      <defs>
       <path id="m2f069009f4" d="M 0 0 
L -3.5 0 
" style="stroke: #000000; stroke-width: 0.8"/>
      </defs>
      <g>
       <use xlink:href="#m2f069009f4" x="22.5" y="44.856" style="stroke: #000000; stroke-width: 0.8"/>
      </g>
     </g>
     <g id="text_5">
      <!-- 0.0 -->
      <g transform="translate(-0.403125 48.655219) scale(0.1 -0.1)">
       <defs>
        <path id="DejaVuSans-2e" d="M 684 794 
L 1344 794 
L 1344 0 
L 684 0 
L 684 794 
z
" transform="scale(0.015625)"/>
       </defs>
       <use xlink:href="#DejaVuSans-30"/>
       <use xlink:href="#DejaVuSans-2e" x="63.623047"/>
       <use xlink:href="#DejaVuSans-30" x="95.410156"/>
      </g>
     </g>
    </g>
    <g id="ytick_2">
     <g id="line2d_5">
      <g>
       <use xlink:href="#m2f069009f4" x="22.5" y="22.352416" style="stroke: #000000; stroke-width: 0.8"/>
      </g>
     </g>
     <g id="text_6">
      <!-- 0.1 -->
      <g transform="translate(-0.403125 26.151635) scale(0.1 -0.1)">
       <use xlink:href="#DejaVuSans-30"/>
       <use xlink:href="#DejaVuSans-2e" x="63.623047"/>
       <use xlink:href="#DejaVuSans-31" x="95.410156"/>
      </g>
     </g>
    </g>
    <g id="text_7">
     <!-- $P_{\tau}$ -->
     <g transform="translate(-6.97 31.812) rotate(-90) scale(0.12 -0.12)">
      <defs>
       <path id="DejaVuSans-Oblique-50" d="M 1081 4666 
L 2541 4666 
Q 3178 4666 3512 4369 
Q 3847 4072 3847 3500 
Q 3847 2731 3353 2303 
Q 2859 1875 1966 1875 
L 1172 1875 
L 806 0 
L 172 0 
L 1081 4666 
z
M 1613 4147 
L 1275 2394 
L 2069 2394 
Q 2606 2394 2893 2669 
Q 3181 2944 3181 3456 
Q 3181 3784 2986 3965 
Q 2791 4147 2438 4147 
L 1613 4147 
z
" transform="scale(0.015625)"/>
      </defs>
      <use xlink:href="#DejaVuSans-Oblique-50" transform="translate(0 0.09375)"/>
      <use xlink:href="#DejaVuSans-Oblique-3c4" transform="translate(60.302734 -16.3125) scale(0.7)"/>
     </g>
    </g>
   </g>
   <g id="line2d_6">
    <path d="M 28.840909 44.67628 
L 29.729525 44.376365 
L 30.491196 43.908296 
L 31.379812 43.067326 
L 32.268428 41.897835 
L 33.283989 40.181265 
L 34.55344 37.571794 
L 35.822891 34.436991 
L 41.662367 19.112502 
L 43.058763 15.992249 
L 44.70905 12.891404 
L 45.851556 11.109084 
L 46.867117 9.915965 
L 47.882678 9.050565 
L 49.025184 8.376799 
L 50.040745 8.003463 
L 50.802416 7.919046 
L 51.564087 8.033651 
L 52.579648 8.430296 
L 54.35688 9.418106 
L 56.134111 10.707052 
L 57.657453 11.947267 
L 58.799959 13.240601 
L 62.481368 18.003279 
L 65.02027 21.314367 
L 72.129197 30.4611 
L 75.048935 33.301519 
L 82.157862 38.610198 
L 85.458436 40.344631 
L 87.870393 41.3202 
L 90.02846 42.083433 
L 96.375717 43.475756 
L 103.103808 44.207848 
L 117.829443 44.747769 
L 132.047297 44.827687 
L 155.659091 44.853491 
L 155.659091 44.853491 
" clip-path="url(#p0b89f07449)" style="fill: none; stroke: #808080; stroke-linecap: square"/>
   </g>
   <g id="patch_103">
    <path d="M 22.5 44.856 
L 22.5 6.048 
" style="fill: none; stroke: #000000; stroke-width: 0.8; stroke-linejoin: miter; stroke-linecap: square"/>
   </g>
   <g id="patch_104">
    <path d="M 22.5 44.856 
L 162 44.856 
" style="fill: none; stroke: #000000; stroke-width: 0.8; stroke-linejoin: miter; stroke-linecap: square"/>
   </g>
  </g>
 </g>
 <defs>
  <clipPath id="p0b89f07449">
   <rect x="22.5" y="6.048" width="139.5" height="38.808"/>
  </clipPath>
 </defs>
</svg>
