<?xml version="1.0" encoding="utf-8" standalone="no"?>
<!DOCTYPE svg PUBLIC "-//W3C//DTD SVG 1.1//EN"
  "http://www.w3.org/Graphics/SVG/1.1/DTD/svg11.dtd">
<svg xmlns:xlink="http://www.w3.org/1999/xlink" width="177.0425pt" height="176.110882pt" viewBox="0 0 177.0425 176.110882" xmlns="http://www.w3.org/2000/svg" version="1.1">
 <metadata>
  <rdf:RDF xmlns:dc="http://purl.org/dc/elements/1.1/" xmlns:cc="http://creativecommons.org/ns#" xmlns:rdf="http://www.w3.org/1999/02/22-rdf-syntax-ns#">
   <cc:Work>
    <dc:type rdf:resource="http://purl.org/dc/dcmitype/StillImage"/>
    <dc:date>2024-01-15T16:55:56.346324</dc:date>
    <dc:format>image/svg+xml</dc:format>
    <dc:creator>
     <cc:Agent>
      <dc:title>Matplotlib v3.7.2, https://matplotlib.org/</dc:title>
     </cc:Agent>
    </dc:creator>
   </cc:Work>
  </rdf:RDF>
 </metadata>
 <defs>
  <style type="text/css">*{stroke-linejoin: round; stroke-linecap: butt}</style>
 </defs>
 <g id="figure_1">
  <g id="patch_1">
   <path d="M 0 176.110882 
L 177.0425 176.110882 
L 177.0425 0 
L 0 0 
z
" style="fill: #ffffff"/>
  </g>
  <g id="axes_1">
   <g id="patch_2">
    <path d="M 37.5425 138.6 
L 177.0425 138.6 
L 177.0425 0 
L 37.5425 0 
z
" style="fill: #ffffff"/>
   </g>
   <g id="PolyCollection_1">
    <defs>
     <path id="m7a8ad19e95" d="M 43.883409 -69.614006 
L 43.883409 -43.810882 
L 49.150544 -47.765823 
L 57.033562 -49.351901 
L 62.58599 -54.190162 
L 70.183715 -61.959215 
L 75.594033 -63.773263 
L 83.333867 -72.713939 
L 90.119545 -76.263033 
L 95.00496 -84.953396 
L 100.717424 -90.96326 
L 106.184714 -97.087326 
L 113.867576 -107.655363 
L 119.320639 -110.455782 
L 127.017729 -116.564111 
L 131.251133 -124.185725 
L 136.707042 -123.57561 
L 144.401285 -124.544727 
L 151.838975 -128.108527 
L 157.551438 -128.543528 
L 163.00877 -133.885994 
L 170.701591 -131.152684 
L 170.701591 -160.320155 
L 170.701591 -160.320155 
L 163.00877 -157.324825 
L 157.551438 -162.601115 
L 151.838975 -160.592459 
L 144.401285 -153.936673 
L 136.707042 -152.733274 
L 131.251133 -154.910685 
L 127.017729 -153.097008 
L 119.320639 -139.767261 
L 113.867576 -138.79722 
L 106.184714 -128.813354 
L 100.717424 -124.591894 
L 95.00496 -106.176315 
L 90.119545 -103.115674 
L 83.333867 -97.438426 
L 75.594033 -88.476957 
L 70.183715 -83.086601 
L 62.58599 -73.998654 
L 57.033562 -67.02936 
L 49.150544 -63.37776 
L 43.883409 -69.614006 
z
" style="stroke: #87cefa"/>
    </defs>
    <g clip-path="url(#pf0c6df1138)">
     <use xlink:href="#m7a8ad19e95" x="0" y="176.110882" style="fill: #87cefa; stroke: #87cefa"/>
    </g>
   </g>
   <g id="PolyCollection_2">
    <defs>
     <path id="m71f5cdd391" d="M 43.883409 -57.226017 
L 43.883409 -58.293491 
L 49.150544 -57.959206 
L 57.033562 -59.652988 
L 62.58599 -63.368449 
L 70.183715 -71.676595 
L 75.594033 -75.216014 
L 83.333867 -84.438086 
L 90.119545 -93.162803 
L 95.00496 -97.75824 
L 100.717424 -107.015252 
L 106.184714 -110.970834 
L 113.867576 -123.007971 
L 119.320639 -125.837617 
L 127.017729 -132.721857 
L 131.251133 -135.134554 
L 136.707042 -139.644051 
L 144.401285 -141.373705 
L 151.838975 -146.931633 
L 157.551438 -145.281116 
L 163.00877 -147.809184 
L 170.701591 -145.17705 
L 170.701591 -143.262211 
L 170.701591 -143.262211 
L 163.00877 -145.693488 
L 157.551438 -144.115013 
L 151.838975 -142.798426 
L 144.401285 -139.329786 
L 136.707042 -137.809603 
L 131.251133 -134.299317 
L 127.017729 -131.522594 
L 119.320639 -124.587139 
L 113.867576 -121.507495 
L 106.184714 -109.120284 
L 100.717424 -104.964567 
L 95.00496 -96.114349 
L 90.119545 -91.320723 
L 83.333867 -83.672185 
L 75.594033 -73.505299 
L 70.183715 -67.971387 
L 62.58599 -62.727885 
L 57.033562 -59.301765 
L 49.150544 -56.962377 
L 43.883409 -57.226017 
z
" style="stroke: #808080; stroke-opacity: 0.5"/>
    </defs>
    <g clip-path="url(#pf0c6df1138)">
     <use xlink:href="#m71f5cdd391" x="0" y="176.110882" style="fill: #808080; fill-opacity: 0.5; stroke: #808080; stroke-opacity: 0.5"/>
    </g>
   </g>
   <g id="PathCollection_1">
    <defs>
     <path id="m0cc341c651" d="M 0 1.118034 
C 0.296506 1.118034 0.580908 1.000231 0.790569 0.790569 
C 1.000231 0.580908 1.118034 0.296506 1.118034 0 
C 1.118034 -0.296506 1.000231 -0.580908 0.790569 -0.790569 
C 0.580908 -1.000231 0.296506 -1.118034 0 -1.118034 
C -0.296506 -1.118034 -0.580908 -1.000231 -0.790569 -0.790569 
C -1.000231 -0.580908 -1.118034 -0.296506 -1.118034 0 
C -1.118034 0.296506 -1.000231 0.580908 -0.790569 0.790569 
C -0.580908 1.000231 -0.296506 1.118034 0 1.118034 
z
" style="stroke: #ffffff"/>
    </defs>
    <g clip-path="url(#pf0c6df1138)">
     <use xlink:href="#m0cc341c651" x="43.883409" y="118.473981" style="fill: #ffffff; stroke: #ffffff"/>
     <use xlink:href="#m0cc341c651" x="49.150544" y="118.475134" style="fill: #ffffff; stroke: #ffffff"/>
     <use xlink:href="#m0cc341c651" x="57.033562" y="116.630989" style="fill: #ffffff; stroke: #ffffff"/>
     <use xlink:href="#m0cc341c651" x="62.58599" y="113.066783" style="fill: #ffffff; stroke: #ffffff"/>
     <use xlink:href="#m0cc341c651" x="70.183715" y="105.86177" style="fill: #ffffff; stroke: #ffffff"/>
     <use xlink:href="#m0cc341c651" x="75.594033" y="101.334936" style="fill: #ffffff; stroke: #ffffff"/>
     <use xlink:href="#m0cc341c651" x="83.333867" y="92.076854" style="fill: #ffffff; stroke: #ffffff"/>
     <use xlink:href="#m0cc341c651" x="90.119545" y="83.995797" style="fill: #ffffff; stroke: #ffffff"/>
     <use xlink:href="#m0cc341c651" x="95.00496" y="79.071726" style="fill: #ffffff; stroke: #ffffff"/>
     <use xlink:href="#m0cc341c651" x="100.717424" y="69.521472" style="fill: #ffffff; stroke: #ffffff"/>
     <use xlink:href="#m0cc341c651" x="106.184714" y="65.662259" style="fill: #ffffff; stroke: #ffffff"/>
     <use xlink:href="#m0cc341c651" x="113.867576" y="53.67542" style="fill: #ffffff; stroke: #ffffff"/>
     <use xlink:href="#m0cc341c651" x="119.320639" y="50.979669" style="fill: #ffffff; stroke: #ffffff"/>
     <use xlink:href="#m0cc341c651" x="127.017729" y="44.09081" style="fill: #ffffff; stroke: #ffffff"/>
     <use xlink:href="#m0cc341c651" x="131.251133" y="41.019262" style="fill: #ffffff; stroke: #ffffff"/>
     <use xlink:href="#m0cc341c651" x="136.707042" y="36.655466" style="fill: #ffffff; stroke: #ffffff"/>
     <use xlink:href="#m0cc341c651" x="144.401285" y="36.290521" style="fill: #ffffff; stroke: #ffffff"/>
     <use xlink:href="#m0cc341c651" x="151.838975" y="30.525384" style="fill: #ffffff; stroke: #ffffff"/>
     <use xlink:href="#m0cc341c651" x="157.551438" y="31.798198" style="fill: #ffffff; stroke: #ffffff"/>
     <use xlink:href="#m0cc341c651" x="163.00877" y="29.761708" style="fill: #ffffff; stroke: #ffffff"/>
     <use xlink:href="#m0cc341c651" x="170.701591" y="32.058262" style="fill: #ffffff; stroke: #ffffff"/>
    </g>
   </g>
   <g id="PathCollection_2">
    <defs>
     <path id="m7886b5e635" d="M -1.118034 1.118034 
L 1.118034 1.118034 
L 1.118034 -1.118034 
L -1.118034 -1.118034 
z
" style="stroke: #008080"/>
    </defs>
    <g clip-path="url(#pf0c6df1138)">
     <use xlink:href="#m7886b5e635" x="161.784842" y="29.757817" style="fill: #008080; stroke: #008080"/>
     <use xlink:href="#m7886b5e635" x="140.167882" y="34.769298" style="fill: #008080; stroke: #008080"/>
     <use xlink:href="#m7886b5e635" x="96.48402" y="76.163042" style="fill: #008080; stroke: #008080"/>
     <use xlink:href="#m7886b5e635" x="65.950311" y="110.707828" style="fill: #008080; stroke: #008080"/>
    </g>
   </g>
   <g id="matplotlib.axis_1">
    <g id="xtick_1">
     <g id="line2d_1">
      <defs>
       <path id="me2a6ace07f" d="M 0 0 
L 0 3.5 
" style="stroke: #000000; stroke-width: 0.8"/>
      </defs>
      <g>
       <use xlink:href="#me2a6ace07f" x="70.183715" y="138.6" style="stroke: #000000; stroke-width: 0.8"/>
      </g>
     </g>
     <g id="text_1">
      <!-- $\mathdefault{10^{-1}}$ -->
      <g transform="translate(65.097849 163.191933) rotate(-45) scale(0.08 -0.08)">
       <defs>
        <path id="DejaVuSans-31" d="M 794 531 
L 1825 531 
L 1825 4091 
L 703 3866 
L 703 4441 
L 1819 4666 
L 2450 4666 
L 2450 531 
L 3481 531 
L 3481 0 
L 794 0 
L 794 531 
z
" transform="scale(0.015625)"/>
        <path id="DejaVuSans-30" d="M 2034 4250 
Q 1547 4250 1301 3770 
Q 1056 3291 1056 2328 
Q 1056 1369 1301 889 
Q 1547 409 2034 409 
Q 2525 409 2770 889 
Q 3016 1369 3016 2328 
Q 3016 3291 2770 3770 
Q 2525 4250 2034 4250 
z
M 2034 4750 
Q 2819 4750 3233 4129 
Q 3647 3509 3647 2328 
Q 3647 1150 3233 529 
Q 2819 -91 2034 -91 
Q 1250 -91 836 529 
Q 422 1150 422 2328 
Q 422 3509 836 4129 
Q 1250 4750 2034 4750 
z
" transform="scale(0.015625)"/>
        <path id="DejaVuSans-2212" d="M 678 2272 
L 4684 2272 
L 4684 1741 
L 678 1741 
L 678 2272 
z
" transform="scale(0.015625)"/>
       </defs>
       <use xlink:href="#DejaVuSans-31" transform="translate(0 0.684375)"/>
       <use xlink:href="#DejaVuSans-30" transform="translate(63.623047 0.684375)"/>
       <use xlink:href="#DejaVuSans-2212" transform="translate(128.203125 38.965625) scale(0.7)"/>
       <use xlink:href="#DejaVuSans-31" transform="translate(186.855469 38.965625) scale(0.7)"/>
      </g>
     </g>
    </g>
    <g id="xtick_2">
     <g id="line2d_2">
      <g>
       <use xlink:href="#me2a6ace07f" x="113.867576" y="138.6" style="stroke: #000000; stroke-width: 0.8"/>
      </g>
     </g>
     <g id="text_2">
      <!-- $\mathdefault{10^{0}}$ -->
      <g transform="translate(110.450483 159.854389) rotate(-45) scale(0.08 -0.08)">
       <use xlink:href="#DejaVuSans-31" transform="translate(0 0.765625)"/>
       <use xlink:href="#DejaVuSans-30" transform="translate(63.623047 0.765625)"/>
       <use xlink:href="#DejaVuSans-30" transform="translate(128.203125 39.046875) scale(0.7)"/>
      </g>
     </g>
    </g>
    <g id="xtick_3">
     <g id="line2d_3">
      <g>
       <use xlink:href="#me2a6ace07f" x="157.551438" y="138.6" style="stroke: #000000; stroke-width: 0.8"/>
      </g>
     </g>
     <g id="text_3">
      <!-- $\mathdefault{10^{1}}$ -->
      <g transform="translate(154.134345 159.854389) rotate(-45) scale(0.08 -0.08)">
       <use xlink:href="#DejaVuSans-31" transform="translate(0 0.684375)"/>
       <use xlink:href="#DejaVuSans-30" transform="translate(63.623047 0.684375)"/>
       <use xlink:href="#DejaVuSans-31" transform="translate(128.203125 38.965625) scale(0.7)"/>
      </g>
     </g>
    </g>
    <g id="xtick_4">
     <g id="line2d_4">
      <defs>
       <path id="m1e768e1768" d="M 0 0 
L 0 2 
" style="stroke: #000000; stroke-width: 0.6"/>
      </defs>
      <g>
       <use xlink:href="#m1e768e1768" x="39.650005" y="138.6" style="stroke: #000000; stroke-width: 0.6"/>
      </g>
     </g>
    </g>
    <g id="xtick_5">
     <g id="line2d_5">
      <g>
       <use xlink:href="#m1e768e1768" x="47.342352" y="138.6" style="stroke: #000000; stroke-width: 0.6"/>
      </g>
     </g>
    </g>
    <g id="xtick_6">
     <g id="line2d_6">
      <g>
       <use xlink:href="#m1e768e1768" x="52.800158" y="138.6" style="stroke: #000000; stroke-width: 0.6"/>
      </g>
     </g>
    </g>
    <g id="xtick_7">
     <g id="line2d_7">
      <g>
       <use xlink:href="#m1e768e1768" x="57.033562" y="138.6" style="stroke: #000000; stroke-width: 0.6"/>
      </g>
     </g>
    </g>
    <g id="xtick_8">
     <g id="line2d_8">
      <g>
       <use xlink:href="#m1e768e1768" x="60.492504" y="138.6" style="stroke: #000000; stroke-width: 0.6"/>
      </g>
     </g>
    </g>
    <g id="xtick_9">
     <g id="line2d_9">
      <g>
       <use xlink:href="#m1e768e1768" x="63.416999" y="138.6" style="stroke: #000000; stroke-width: 0.6"/>
      </g>
     </g>
    </g>
    <g id="xtick_10">
     <g id="line2d_10">
      <g>
       <use xlink:href="#m1e768e1768" x="65.950311" y="138.6" style="stroke: #000000; stroke-width: 0.6"/>
      </g>
     </g>
    </g>
    <g id="xtick_11">
     <g id="line2d_11">
      <g>
       <use xlink:href="#m1e768e1768" x="68.184851" y="138.6" style="stroke: #000000; stroke-width: 0.6"/>
      </g>
     </g>
    </g>
    <g id="xtick_12">
     <g id="line2d_12">
      <g>
       <use xlink:href="#m1e768e1768" x="83.333867" y="138.6" style="stroke: #000000; stroke-width: 0.6"/>
      </g>
     </g>
    </g>
    <g id="xtick_13">
     <g id="line2d_13">
      <g>
       <use xlink:href="#m1e768e1768" x="91.026214" y="138.6" style="stroke: #000000; stroke-width: 0.6"/>
      </g>
     </g>
    </g>
    <g id="xtick_14">
     <g id="line2d_14">
      <g>
       <use xlink:href="#m1e768e1768" x="96.48402" y="138.6" style="stroke: #000000; stroke-width: 0.6"/>
      </g>
     </g>
    </g>
    <g id="xtick_15">
     <g id="line2d_15">
      <g>
       <use xlink:href="#m1e768e1768" x="100.717424" y="138.6" style="stroke: #000000; stroke-width: 0.6"/>
      </g>
     </g>
    </g>
    <g id="xtick_16">
     <g id="line2d_16">
      <g>
       <use xlink:href="#m1e768e1768" x="104.176366" y="138.6" style="stroke: #000000; stroke-width: 0.6"/>
      </g>
     </g>
    </g>
    <g id="xtick_17">
     <g id="line2d_17">
      <g>
       <use xlink:href="#m1e768e1768" x="107.100861" y="138.6" style="stroke: #000000; stroke-width: 0.6"/>
      </g>
     </g>
    </g>
    <g id="xtick_18">
     <g id="line2d_18">
      <g>
       <use xlink:href="#m1e768e1768" x="109.634173" y="138.6" style="stroke: #000000; stroke-width: 0.6"/>
      </g>
     </g>
    </g>
    <g id="xtick_19">
     <g id="line2d_19">
      <g>
       <use xlink:href="#m1e768e1768" x="111.868712" y="138.6" style="stroke: #000000; stroke-width: 0.6"/>
      </g>
     </g>
    </g>
    <g id="xtick_20">
     <g id="line2d_20">
      <g>
       <use xlink:href="#m1e768e1768" x="127.017729" y="138.6" style="stroke: #000000; stroke-width: 0.6"/>
      </g>
     </g>
    </g>
    <g id="xtick_21">
     <g id="line2d_21">
      <g>
       <use xlink:href="#m1e768e1768" x="134.710075" y="138.6" style="stroke: #000000; stroke-width: 0.6"/>
      </g>
     </g>
    </g>
    <g id="xtick_22">
     <g id="line2d_22">
      <g>
       <use xlink:href="#m1e768e1768" x="140.167882" y="138.6" style="stroke: #000000; stroke-width: 0.6"/>
      </g>
     </g>
    </g>
    <g id="xtick_23">
     <g id="line2d_23">
      <g>
       <use xlink:href="#m1e768e1768" x="144.401285" y="138.6" style="stroke: #000000; stroke-width: 0.6"/>
      </g>
     </g>
    </g>
    <g id="xtick_24">
     <g id="line2d_24">
      <g>
       <use xlink:href="#m1e768e1768" x="147.860228" y="138.6" style="stroke: #000000; stroke-width: 0.6"/>
      </g>
     </g>
    </g>
    <g id="xtick_25">
     <g id="line2d_25">
      <g>
       <use xlink:href="#m1e768e1768" x="150.784722" y="138.6" style="stroke: #000000; stroke-width: 0.6"/>
      </g>
     </g>
    </g>
    <g id="xtick_26">
     <g id="line2d_26">
      <g>
       <use xlink:href="#m1e768e1768" x="153.318035" y="138.6" style="stroke: #000000; stroke-width: 0.6"/>
      </g>
     </g>
    </g>
    <g id="xtick_27">
     <g id="line2d_27">
      <g>
       <use xlink:href="#m1e768e1768" x="155.552574" y="138.6" style="stroke: #000000; stroke-width: 0.6"/>
      </g>
     </g>
    </g>
    <g id="xtick_28">
     <g id="line2d_28">
      <g>
       <use xlink:href="#m1e768e1768" x="170.701591" y="138.6" style="stroke: #000000; stroke-width: 0.6"/>
      </g>
     </g>
    </g>
    <g id="text_4">
     <!-- $r$ -->
     <g transform="translate(105.6125 174.447132) scale(0.08 -0.08)">
      <defs>
       <path id="DejaVuSans-Oblique-72" d="M 2853 2969 
Q 2766 3016 2653 3041 
Q 2541 3066 2413 3066 
Q 1953 3066 1609 2717 
Q 1266 2369 1153 1784 
L 800 0 
L 225 0 
L 909 3500 
L 1484 3500 
L 1375 2956 
Q 1603 3259 1920 3421 
Q 2238 3584 2597 3584 
Q 2691 3584 2781 3573 
Q 2872 3563 2963 3538 
L 2853 2969 
z
" transform="scale(0.015625)"/>
      </defs>
      <use xlink:href="#DejaVuSans-Oblique-72"/>
     </g>
    </g>
   </g>
   <g id="matplotlib.axis_2">
    <g id="ytick_1">
     <g id="line2d_29">
      <defs>
       <path id="m6e85912ffd" d="M 0 0 
L -3.5 0 
" style="stroke: #000000; stroke-width: 0.8"/>
      </defs>
      <g>
       <use xlink:href="#m6e85912ffd" x="37.5425" y="104.037626" style="stroke: #000000; stroke-width: 0.8"/>
      </g>
     </g>
     <g id="text_5">
      <!-- $\mathdefault{10^{-1}}$ -->
      <g transform="translate(11.7425 107.077001) scale(0.08 -0.08)">
       <use xlink:href="#DejaVuSans-31" transform="translate(0 0.684375)"/>
       <use xlink:href="#DejaVuSans-30" transform="translate(63.623047 0.684375)"/>
       <use xlink:href="#DejaVuSans-2212" transform="translate(128.203125 38.965625) scale(0.7)"/>
       <use xlink:href="#DejaVuSans-31" transform="translate(186.855469 38.965625) scale(0.7)"/>
      </g>
     </g>
    </g>
    <g id="ytick_2">
     <g id="line2d_30">
      <g>
       <use xlink:href="#m6e85912ffd" x="37.5425" y="61.562028" style="stroke: #000000; stroke-width: 0.8"/>
      </g>
     </g>
     <g id="text_6">
      <!-- $\mathdefault{10^{0}}$ -->
      <g transform="translate(16.4625 64.601403) scale(0.08 -0.08)">
       <use xlink:href="#DejaVuSans-31" transform="translate(0 0.765625)"/>
       <use xlink:href="#DejaVuSans-30" transform="translate(63.623047 0.765625)"/>
       <use xlink:href="#DejaVuSans-30" transform="translate(128.203125 39.046875) scale(0.7)"/>
      </g>
     </g>
    </g>
    <g id="ytick_3">
     <g id="line2d_31">
      <g>
       <use xlink:href="#m6e85912ffd" x="37.5425" y="19.086429" style="stroke: #000000; stroke-width: 0.8"/>
      </g>
     </g>
     <g id="text_7">
      <!-- $\mathdefault{10^{1}}$ -->
      <g transform="translate(16.4625 22.125804) scale(0.08 -0.08)">
       <use xlink:href="#DejaVuSans-31" transform="translate(0 0.684375)"/>
       <use xlink:href="#DejaVuSans-30" transform="translate(63.623047 0.684375)"/>
       <use xlink:href="#DejaVuSans-31" transform="translate(128.203125 38.965625) scale(0.7)"/>
      </g>
     </g>
    </g>
    <g id="ytick_4">
     <g id="line2d_32">
      <defs>
       <path id="m78353e5476" d="M 0 0 
L -2 0 
" style="stroke: #000000; stroke-width: 0.6"/>
      </defs>
      <g>
       <use xlink:href="#m78353e5476" x="37.5425" y="133.726796" style="stroke: #000000; stroke-width: 0.6"/>
      </g>
     </g>
    </g>
    <g id="ytick_5">
     <g id="line2d_33">
      <g>
       <use xlink:href="#m78353e5476" x="37.5425" y="126.247214" style="stroke: #000000; stroke-width: 0.6"/>
      </g>
     </g>
    </g>
    <g id="ytick_6">
     <g id="line2d_34">
      <g>
       <use xlink:href="#m78353e5476" x="37.5425" y="120.940367" style="stroke: #000000; stroke-width: 0.6"/>
      </g>
     </g>
    </g>
    <g id="ytick_7">
     <g id="line2d_35">
      <g>
       <use xlink:href="#m78353e5476" x="37.5425" y="116.824056" style="stroke: #000000; stroke-width: 0.6"/>
      </g>
     </g>
    </g>
    <g id="ytick_8">
     <g id="line2d_36">
      <g>
       <use xlink:href="#m78353e5476" x="37.5425" y="113.460785" style="stroke: #000000; stroke-width: 0.6"/>
      </g>
     </g>
    </g>
    <g id="ytick_9">
     <g id="line2d_37">
      <g>
       <use xlink:href="#m78353e5476" x="37.5425" y="110.61718" style="stroke: #000000; stroke-width: 0.6"/>
      </g>
     </g>
    </g>
    <g id="ytick_10">
     <g id="line2d_38">
      <g>
       <use xlink:href="#m78353e5476" x="37.5425" y="108.153937" style="stroke: #000000; stroke-width: 0.6"/>
      </g>
     </g>
    </g>
    <g id="ytick_11">
     <g id="line2d_39">
      <g>
       <use xlink:href="#m78353e5476" x="37.5425" y="105.981203" style="stroke: #000000; stroke-width: 0.6"/>
      </g>
     </g>
    </g>
    <g id="ytick_12">
     <g id="line2d_40">
      <g>
       <use xlink:href="#m78353e5476" x="37.5425" y="91.251197" style="stroke: #000000; stroke-width: 0.6"/>
      </g>
     </g>
    </g>
    <g id="ytick_13">
     <g id="line2d_41">
      <g>
       <use xlink:href="#m78353e5476" x="37.5425" y="83.771616" style="stroke: #000000; stroke-width: 0.6"/>
      </g>
     </g>
    </g>
    <g id="ytick_14">
     <g id="line2d_42">
      <g>
       <use xlink:href="#m78353e5476" x="37.5425" y="78.464768" style="stroke: #000000; stroke-width: 0.6"/>
      </g>
     </g>
    </g>
    <g id="ytick_15">
     <g id="line2d_43">
      <g>
       <use xlink:href="#m78353e5476" x="37.5425" y="74.348457" style="stroke: #000000; stroke-width: 0.6"/>
      </g>
     </g>
    </g>
    <g id="ytick_16">
     <g id="line2d_44">
      <g>
       <use xlink:href="#m78353e5476" x="37.5425" y="70.985186" style="stroke: #000000; stroke-width: 0.6"/>
      </g>
     </g>
    </g>
    <g id="ytick_17">
     <g id="line2d_45">
      <g>
       <use xlink:href="#m78353e5476" x="37.5425" y="68.141581" style="stroke: #000000; stroke-width: 0.6"/>
      </g>
     </g>
    </g>
    <g id="ytick_18">
     <g id="line2d_46">
      <g>
       <use xlink:href="#m78353e5476" x="37.5425" y="65.678339" style="stroke: #000000; stroke-width: 0.6"/>
      </g>
     </g>
    </g>
    <g id="ytick_19">
     <g id="line2d_47">
      <g>
       <use xlink:href="#m78353e5476" x="37.5425" y="63.505605" style="stroke: #000000; stroke-width: 0.6"/>
      </g>
     </g>
    </g>
    <g id="ytick_20">
     <g id="line2d_48">
      <g>
       <use xlink:href="#m78353e5476" x="37.5425" y="48.775599" style="stroke: #000000; stroke-width: 0.6"/>
      </g>
     </g>
    </g>
    <g id="ytick_21">
     <g id="line2d_49">
      <g>
       <use xlink:href="#m78353e5476" x="37.5425" y="41.296017" style="stroke: #000000; stroke-width: 0.6"/>
      </g>
     </g>
    </g>
    <g id="ytick_22">
     <g id="line2d_50">
      <g>
       <use xlink:href="#m78353e5476" x="37.5425" y="35.989169" style="stroke: #000000; stroke-width: 0.6"/>
      </g>
     </g>
    </g>
    <g id="ytick_23">
     <g id="line2d_51">
      <g>
       <use xlink:href="#m78353e5476" x="37.5425" y="31.872859" style="stroke: #000000; stroke-width: 0.6"/>
      </g>
     </g>
    </g>
    <g id="ytick_24">
     <g id="line2d_52">
      <g>
       <use xlink:href="#m78353e5476" x="37.5425" y="28.509588" style="stroke: #000000; stroke-width: 0.6"/>
      </g>
     </g>
    </g>
    <g id="ytick_25">
     <g id="line2d_53">
      <g>
       <use xlink:href="#m78353e5476" x="37.5425" y="25.665983" style="stroke: #000000; stroke-width: 0.6"/>
      </g>
     </g>
    </g>
    <g id="ytick_26">
     <g id="line2d_54">
      <g>
       <use xlink:href="#m78353e5476" x="37.5425" y="23.20274" style="stroke: #000000; stroke-width: 0.6"/>
      </g>
     </g>
    </g>
    <g id="ytick_27">
     <g id="line2d_55">
      <g>
       <use xlink:href="#m78353e5476" x="37.5425" y="21.030006" style="stroke: #000000; stroke-width: 0.6"/>
      </g>
     </g>
    </g>
    <g id="ytick_28">
     <g id="line2d_56">
      <g>
       <use xlink:href="#m78353e5476" x="37.5425" y="6.3" style="stroke: #000000; stroke-width: 0.6"/>
      </g>
     </g>
    </g>
    <g id="text_8">
     <!-- $r$ -->
     <g transform="translate(6.07875 70.98) rotate(-90) scale(0.08 -0.08)">
      <use xlink:href="#DejaVuSans-Oblique-72"/>
     </g>
    </g>
   </g>
   <g id="line2d_57">
    <path d="M 43.883409 129.610485 
L 49.150544 124.489035 
L 57.033562 116.824056 
L 62.58599 111.425203 
L 70.183715 104.037626 
L 75.594033 98.776954 
L 83.333867 91.251197 
L 90.119545 84.653206 
L 95.00496 79.902918 
L 100.717424 74.348457 
L 106.184714 69.032388 
L 113.867576 61.562028 
L 119.320639 56.259793 
L 127.017729 48.775599 
L 131.251133 44.659288 
L 136.707042 39.354285 
L 144.401285 31.872859 
L 151.838975 24.64089 
L 157.551438 19.086429 
L 163.00877 13.780043 
L 170.701591 6.3 
" clip-path="url(#pf0c6df1138)" style="fill: none; stroke: #ff4500; stroke-width: 0.75; stroke-linecap: square"/>
   </g>
   <g id="patch_3">
    <path d="M 161.478841 37.104197 
L 162.085986 37.104197 
L 162.085986 23.368365 
L 161.478841 23.368365 
L 161.478841 37.104197 
L 161.478841 37.104197 
z
" clip-path="url(#pf0c6df1138)" style="fill: none; stroke: #008080; stroke-width: 0.5; stroke-linejoin: miter"/>
   </g>
   <g id="line2d_58">
    <path d="M 161.784842 37.104197 
L 161.784842 57.203597 
" clip-path="url(#pf0c6df1138)" style="fill: none; stroke: #008080; stroke-width: 0.5; stroke-linecap: square"/>
   </g>
   <g id="line2d_59">
    <path d="M 161.784842 23.368365 
L 161.784842 13.530984 
" clip-path="url(#pf0c6df1138)" style="fill: none; stroke: #008080; stroke-width: 0.5; stroke-linecap: square"/>
   </g>
   <g id="line2d_60">
    <path d="M 161.632458 57.203597 
L 161.936011 57.203597 
" clip-path="url(#pf0c6df1138)" style="fill: none; stroke: #000000; stroke-linecap: square"/>
   </g>
   <g id="line2d_61">
    <path d="M 161.632458 13.530984 
L 161.936011 13.530984 
" clip-path="url(#pf0c6df1138)" style="fill: none; stroke: #000000; stroke-linecap: square"/>
   </g>
   <g id="patch_4">
    <path d="M 139.808786 41.202752 
L 140.520307 41.202752 
L 140.520307 28.05588 
L 139.808786 28.05588 
L 139.808786 41.202752 
L 139.808786 41.202752 
z
" clip-path="url(#pf0c6df1138)" style="fill: none; stroke: #008080; stroke-width: 0.5; stroke-linejoin: miter"/>
   </g>
   <g id="line2d_62">
    <path d="M 140.167882 41.202752 
L 140.167882 59.810485 
" clip-path="url(#pf0c6df1138)" style="fill: none; stroke: #008080; stroke-width: 0.5; stroke-linecap: square"/>
   </g>
   <g id="line2d_63">
    <path d="M 140.167882 28.05588 
L 140.167882 17.886841 
" clip-path="url(#pf0c6df1138)" style="fill: none; stroke: #008080; stroke-width: 0.5; stroke-linecap: square"/>
   </g>
   <g id="line2d_64">
    <path d="M 139.989184 59.810485 
L 140.344913 59.810485 
" clip-path="url(#pf0c6df1138)" style="fill: none; stroke: #000000; stroke-linecap: square"/>
   </g>
   <g id="line2d_65">
    <path d="M 139.989184 17.886841 
L 140.344913 17.886841 
" clip-path="url(#pf0c6df1138)" style="fill: none; stroke: #000000; stroke-linecap: square"/>
   </g>
   <g id="patch_5">
    <path d="M 96.124924 83.606058 
L 96.836445 83.606058 
L 96.836445 70.382381 
L 96.124924 70.382381 
L 96.124924 83.606058 
L 96.124924 83.606058 
z
" clip-path="url(#pf0c6df1138)" style="fill: none; stroke: #008080; stroke-width: 0.5; stroke-linejoin: miter"/>
   </g>
   <g id="line2d_66">
    <path d="M 96.48402 83.606058 
L 96.48402 97.38301 
" clip-path="url(#pf0c6df1138)" style="fill: none; stroke: #008080; stroke-width: 0.5; stroke-linecap: square"/>
   </g>
   <g id="line2d_67">
    <path d="M 96.48402 70.382381 
L 96.48402 59.972435 
" clip-path="url(#pf0c6df1138)" style="fill: none; stroke: #008080; stroke-width: 0.5; stroke-linecap: square"/>
   </g>
   <g id="line2d_68">
    <path d="M 96.305322 97.38301 
L 96.661051 97.38301 
" clip-path="url(#pf0c6df1138)" style="fill: none; stroke: #000000; stroke-linecap: square"/>
   </g>
   <g id="line2d_69">
    <path d="M 96.305322 59.972435 
L 96.661051 59.972435 
" clip-path="url(#pf0c6df1138)" style="fill: none; stroke: #000000; stroke-linecap: square"/>
   </g>
   <g id="patch_6">
    <path d="M 65.591215 114.942525 
L 66.302736 114.942525 
L 66.302736 106.059268 
L 65.591215 106.059268 
L 65.591215 114.942525 
L 65.591215 114.942525 
z
" clip-path="url(#pf0c6df1138)" style="fill: none; stroke: #008080; stroke-width: 0.5; stroke-linejoin: miter"/>
   </g>
   <g id="line2d_70">
    <path d="M 65.950311 114.942525 
L 65.950311 124.501213 
" clip-path="url(#pf0c6df1138)" style="fill: none; stroke: #008080; stroke-width: 0.5; stroke-linecap: square"/>
   </g>
   <g id="line2d_71">
    <path d="M 65.950311 106.059268 
L 65.950311 97.958746 
" clip-path="url(#pf0c6df1138)" style="fill: none; stroke: #008080; stroke-width: 0.5; stroke-linecap: square"/>
   </g>
   <g id="line2d_72">
    <path d="M 65.771613 124.501213 
L 66.127342 124.501213 
" clip-path="url(#pf0c6df1138)" style="fill: none; stroke: #000000; stroke-linecap: square"/>
   </g>
   <g id="line2d_73">
    <path d="M 65.771613 97.958746 
L 66.127342 97.958746 
" clip-path="url(#pf0c6df1138)" style="fill: none; stroke: #000000; stroke-linecap: square"/>
   </g>
   <g id="line2d_74">
    <path d="M 161.478841 29.812325 
L 162.085986 29.812325 
" clip-path="url(#pf0c6df1138)" style="fill: none; stroke: #000000; stroke-linecap: square"/>
   </g>
   <g id="line2d_75">
    <path d="M 139.808786 34.765443 
L 140.520307 34.765443 
" clip-path="url(#pf0c6df1138)" style="fill: none; stroke: #000000; stroke-linecap: square"/>
   </g>
   <g id="line2d_76">
    <path d="M 96.124924 76.099498 
L 96.836445 76.099498 
" clip-path="url(#pf0c6df1138)" style="fill: none; stroke: #000000; stroke-linecap: square"/>
   </g>
   <g id="line2d_77">
    <path d="M 65.591215 110.802053 
L 66.302736 110.802053 
" clip-path="url(#pf0c6df1138)" style="fill: none; stroke: #000000; stroke-linecap: square"/>
   </g>
   <g id="patch_7">
    <path d="M 37.5425 138.6 
L 37.5425 0 
" style="fill: none; stroke: #000000; stroke-width: 0.8; stroke-linejoin: miter; stroke-linecap: square"/>
   </g>
   <g id="patch_8">
    <path d="M 177.0425 138.6 
L 177.0425 0 
" style="fill: none; stroke: #000000; stroke-width: 0.8; stroke-linejoin: miter; stroke-linecap: square"/>
   </g>
   <g id="patch_9">
    <path d="M 37.5425 138.6 
L 177.0425 138.6 
" style="fill: none; stroke: #000000; stroke-width: 0.8; stroke-linejoin: miter; stroke-linecap: square"/>
   </g>
   <g id="patch_10">
    <path d="M 37.5425 0 
L 177.0425 0 
" style="fill: none; stroke: #000000; stroke-width: 0.8; stroke-linejoin: miter; stroke-linecap: square"/>
   </g>
   <g id="legend_1">
    <g id="line2d_78">
     <path d="M 85.3625 103.45125 
L 93.3625 103.45125 
L 101.3625 103.45125 
" style="fill: none; stroke: #ff4500; stroke-width: 0.75; stroke-linecap: square"/>
    </g>
    <g id="text_9">
     <!-- True -->
     <g transform="translate(107.7625 106.25125) scale(0.08 -0.08)">
      <defs>
       <path id="DejaVuSans-54" d="M -19 4666 
L 3928 4666 
L 3928 4134 
L 2272 4134 
L 2272 0 
L 1638 0 
L 1638 4134 
L -19 4134 
L -19 4666 
z
" transform="scale(0.015625)"/>
       <path id="DejaVuSans-72" d="M 2631 2963 
Q 2534 3019 2420 3045 
Q 2306 3072 2169 3072 
Q 1681 3072 1420 2755 
Q 1159 2438 1159 1844 
L 1159 0 
L 581 0 
L 581 3500 
L 1159 3500 
L 1159 2956 
Q 1341 3275 1631 3429 
Q 1922 3584 2338 3584 
Q 2397 3584 2469 3576 
Q 2541 3569 2628 3553 
L 2631 2963 
z
" transform="scale(0.015625)"/>
       <path id="DejaVuSans-75" d="M 544 1381 
L 544 3500 
L 1119 3500 
L 1119 1403 
Q 1119 906 1312 657 
Q 1506 409 1894 409 
Q 2359 409 2629 706 
Q 2900 1003 2900 1516 
L 2900 3500 
L 3475 3500 
L 3475 0 
L 2900 0 
L 2900 538 
Q 2691 219 2414 64 
Q 2138 -91 1772 -91 
Q 1169 -91 856 284 
Q 544 659 544 1381 
z
M 1991 3584 
L 1991 3584 
z
" transform="scale(0.015625)"/>
       <path id="DejaVuSans-65" d="M 3597 1894 
L 3597 1613 
L 953 1613 
Q 991 1019 1311 708 
Q 1631 397 2203 397 
Q 2534 397 2845 478 
Q 3156 559 3463 722 
L 3463 178 
Q 3153 47 2828 -22 
Q 2503 -91 2169 -91 
Q 1331 -91 842 396 
Q 353 884 353 1716 
Q 353 2575 817 3079 
Q 1281 3584 2069 3584 
Q 2775 3584 3186 3129 
Q 3597 2675 3597 1894 
z
M 3022 2063 
Q 3016 2534 2758 2815 
Q 2500 3097 2075 3097 
Q 1594 3097 1305 2825 
Q 1016 2553 972 2059 
L 3022 2063 
z
" transform="scale(0.015625)"/>
      </defs>
      <use xlink:href="#DejaVuSans-54"/>
      <use xlink:href="#DejaVuSans-72" x="46.333984"/>
      <use xlink:href="#DejaVuSans-75" x="87.447266"/>
      <use xlink:href="#DejaVuSans-65" x="150.826172"/>
     </g>
    </g>
    <g id="PathCollection_3">
     <g>
      <use xlink:href="#m0cc341c651" x="93.3625" y="115.89375" style="fill: #ffffff; stroke: #ffffff"/>
     </g>
    </g>
    <g id="text_10">
     <!-- Predicted $\pm$ std -->
     <g transform="translate(107.7625 117.99375) scale(0.08 -0.08)">
      <defs>
       <path id="DejaVuSans-50" d="M 1259 4147 
L 1259 2394 
L 2053 2394 
Q 2494 2394 2734 2622 
Q 2975 2850 2975 3272 
Q 2975 3691 2734 3919 
Q 2494 4147 2053 4147 
L 1259 4147 
z
M 628 4666 
L 2053 4666 
Q 2838 4666 3239 4311 
Q 3641 3956 3641 3272 
Q 3641 2581 3239 2228 
Q 2838 1875 2053 1875 
L 1259 1875 
L 1259 0 
L 628 0 
L 628 4666 
z
" transform="scale(0.015625)"/>
       <path id="DejaVuSans-64" d="M 2906 2969 
L 2906 4863 
L 3481 4863 
L 3481 0 
L 2906 0 
L 2906 525 
Q 2725 213 2448 61 
Q 2172 -91 1784 -91 
Q 1150 -91 751 415 
Q 353 922 353 1747 
Q 353 2572 751 3078 
Q 1150 3584 1784 3584 
Q 2172 3584 2448 3432 
Q 2725 3281 2906 2969 
z
M 947 1747 
Q 947 1113 1208 752 
Q 1469 391 1925 391 
Q 2381 391 2643 752 
Q 2906 1113 2906 1747 
Q 2906 2381 2643 2742 
Q 2381 3103 1925 3103 
Q 1469 3103 1208 2742 
Q 947 2381 947 1747 
z
" transform="scale(0.015625)"/>
       <path id="DejaVuSans-69" d="M 603 3500 
L 1178 3500 
L 1178 0 
L 603 0 
L 603 3500 
z
M 603 4863 
L 1178 4863 
L 1178 4134 
L 603 4134 
L 603 4863 
z
" transform="scale(0.015625)"/>
       <path id="DejaVuSans-63" d="M 3122 3366 
L 3122 2828 
Q 2878 2963 2633 3030 
Q 2388 3097 2138 3097 
Q 1578 3097 1268 2742 
Q 959 2388 959 1747 
Q 959 1106 1268 751 
Q 1578 397 2138 397 
Q 2388 397 2633 464 
Q 2878 531 3122 666 
L 3122 134 
Q 2881 22 2623 -34 
Q 2366 -91 2075 -91 
Q 1284 -91 818 406 
Q 353 903 353 1747 
Q 353 2603 823 3093 
Q 1294 3584 2113 3584 
Q 2378 3584 2631 3529 
Q 2884 3475 3122 3366 
z
" transform="scale(0.015625)"/>
       <path id="DejaVuSans-74" d="M 1172 4494 
L 1172 3500 
L 2356 3500 
L 2356 3053 
L 1172 3053 
L 1172 1153 
Q 1172 725 1289 603 
Q 1406 481 1766 481 
L 2356 481 
L 2356 0 
L 1766 0 
Q 1100 0 847 248 
Q 594 497 594 1153 
L 594 3053 
L 172 3053 
L 172 3500 
L 594 3500 
L 594 4494 
L 1172 4494 
z
" transform="scale(0.015625)"/>
       <path id="DejaVuSans-20" transform="scale(0.015625)"/>
       <path id="DejaVuSans-b1" d="M 2944 4013 
L 2944 2803 
L 4684 2803 
L 4684 2272 
L 2944 2272 
L 2944 1063 
L 2419 1063 
L 2419 2272 
L 678 2272 
L 678 2803 
L 2419 2803 
L 2419 4013 
L 2944 4013 
z
M 678 531 
L 4684 531 
L 4684 0 
L 678 0 
L 678 531 
z
" transform="scale(0.015625)"/>
       <path id="DejaVuSans-73" d="M 2834 3397 
L 2834 2853 
Q 2591 2978 2328 3040 
Q 2066 3103 1784 3103 
Q 1356 3103 1142 2972 
Q 928 2841 928 2578 
Q 928 2378 1081 2264 
Q 1234 2150 1697 2047 
L 1894 2003 
Q 2506 1872 2764 1633 
Q 3022 1394 3022 966 
Q 3022 478 2636 193 
Q 2250 -91 1575 -91 
Q 1294 -91 989 -36 
Q 684 19 347 128 
L 347 722 
Q 666 556 975 473 
Q 1284 391 1588 391 
Q 1994 391 2212 530 
Q 2431 669 2431 922 
Q 2431 1156 2273 1281 
Q 2116 1406 1581 1522 
L 1381 1569 
Q 847 1681 609 1914 
Q 372 2147 372 2553 
Q 372 3047 722 3315 
Q 1072 3584 1716 3584 
Q 2034 3584 2315 3537 
Q 2597 3491 2834 3397 
z
" transform="scale(0.015625)"/>
      </defs>
      <use xlink:href="#DejaVuSans-50" transform="translate(0 0.015625)"/>
      <use xlink:href="#DejaVuSans-72" transform="translate(60.302734 0.015625)"/>
      <use xlink:href="#DejaVuSans-65" transform="translate(101.416016 0.015625)"/>
      <use xlink:href="#DejaVuSans-64" transform="translate(162.939453 0.015625)"/>
      <use xlink:href="#DejaVuSans-69" transform="translate(226.416016 0.015625)"/>
      <use xlink:href="#DejaVuSans-63" transform="translate(254.199219 0.015625)"/>
      <use xlink:href="#DejaVuSans-74" transform="translate(309.179688 0.015625)"/>
      <use xlink:href="#DejaVuSans-65" transform="translate(348.388672 0.015625)"/>
      <use xlink:href="#DejaVuSans-64" transform="translate(409.912109 0.015625)"/>
      <use xlink:href="#DejaVuSans-20" transform="translate(473.388672 0.015625)"/>
      <use xlink:href="#DejaVuSans-b1" transform="translate(505.175781 0.015625)"/>
      <use xlink:href="#DejaVuSans-20" transform="translate(588.964844 0.015625)"/>
      <use xlink:href="#DejaVuSans-73" transform="translate(620.751953 0.015625)"/>
      <use xlink:href="#DejaVuSans-74" transform="translate(672.851562 0.015625)"/>
      <use xlink:href="#DejaVuSans-64" transform="translate(712.060547 0.015625)"/>
     </g>
    </g>
    <g id="PathCollection_4">
     <g>
      <use xlink:href="#m7886b5e635" x="93.3625" y="127.63625" style="fill: #008080; stroke: #008080"/>
     </g>
    </g>
    <g id="text_11">
     <!-- Unseen -->
     <g transform="translate(107.7625 129.73625) scale(0.08 -0.08)">
      <defs>
       <path id="DejaVuSans-55" d="M 556 4666 
L 1191 4666 
L 1191 1831 
Q 1191 1081 1462 751 
Q 1734 422 2344 422 
Q 2950 422 3222 751 
Q 3494 1081 3494 1831 
L 3494 4666 
L 4128 4666 
L 4128 1753 
Q 4128 841 3676 375 
Q 3225 -91 2344 -91 
Q 1459 -91 1007 375 
Q 556 841 556 1753 
L 556 4666 
z
" transform="scale(0.015625)"/>
       <path id="DejaVuSans-6e" d="M 3513 2113 
L 3513 0 
L 2938 0 
L 2938 2094 
Q 2938 2591 2744 2837 
Q 2550 3084 2163 3084 
Q 1697 3084 1428 2787 
Q 1159 2491 1159 1978 
L 1159 0 
L 581 0 
L 581 3500 
L 1159 3500 
L 1159 2956 
Q 1366 3272 1645 3428 
Q 1925 3584 2291 3584 
Q 2894 3584 3203 3211 
Q 3513 2838 3513 2113 
z
" transform="scale(0.015625)"/>
      </defs>
      <use xlink:href="#DejaVuSans-55"/>
      <use xlink:href="#DejaVuSans-6e" x="73.193359"/>
      <use xlink:href="#DejaVuSans-73" x="136.572266"/>
      <use xlink:href="#DejaVuSans-65" x="188.671875"/>
      <use xlink:href="#DejaVuSans-65" x="250.195312"/>
      <use xlink:href="#DejaVuSans-6e" x="311.71875"/>
     </g>
    </g>
   </g>
  </g>
 </g>
 <defs>
  <clipPath id="pf0c6df1138">
   <rect x="37.5425" y="0" width="139.5" height="138.6"/>
  </clipPath>
 </defs>
</svg>
